<?xml version="1.0" encoding="UTF-8"?>
<svg id="_レイヤー_2" data-name="レイヤー 2" xmlns="http://www.w3.org/2000/svg" viewBox="0 0 689.89 90.15">
  <defs>
    <style>
      .cls-1 {
        fill: #fff;
      }

      .cls-2 {
        fill: #df5486;
      }

      .cls-3, .cls-4 {
        fill: #e31a84;
      }

      .cls-3, .cls-5 {
        fill-rule: evenodd;
      }

      .cls-6 {
        fill: #edb9d4;
      }

      .cls-5 {
        fill: #e1e133;
      }
    </style>
  </defs>
  <g id="_レイヤー_1-2" data-name="レイヤー 1">
    <g>
      <path class="cls-4" d="M547.48,45.21c0,10.66-3.78,19.77-11.35,27.33-7.55,7.55-16.7,11.33-27.43,11.33s-19.78-3.72-27.38-11.17c-7.6-7.44-11.39-16.49-11.39-27.14s3.81-20.34,11.44-27.89c7.64-7.56,17-11.33,28.12-11.33s19.55,3.81,26.92,11.45c7.36,7.63,11.06,16.78,11.06,27.43Z"/>
      <path class="cls-1" d="M550.62,46.97c0,11.29-4,20.94-12.01,28.94-8.01,8-17.69,12.01-29.06,12.01s-20.96-3.94-29-11.83c-8.05-7.88-12.07-17.47-12.07-28.76s4.04-21.53,12.12-29.54c8.09-8.01,18.01-12.01,29.79-12.01s20.71,4.04,28.52,12.13c7.81,8.08,11.71,17.78,11.71,29.06Z"/>
      <path class="cls-6" d="M476.01,46.39c0,9.22,3.19,17.02,9.56,23.4,6.38,6.38,14.18,9.56,23.39,9.56s16.85-3.17,23.34-9.51c6.5-6.34,9.73-14,9.73-23,0-9.67-3.22-17.66-9.67-23.95-6.45-6.3-14.5-9.45-24.19-9.45-8.91,0-16.51,3.25-22.77,9.73-6.26,6.49-9.39,14.23-9.39,23.22Z"/>
      <path class="cls-3" d="M492.02,31.06c-3.19-1.42-5.53-2.18-7.03-.59-1.51,1.67,.17,4.69,2.59,7.03,4.02,3.77,11.14,5.95,19.1,7.28-1.84-7.78-3.68-15.57-7.8-19.42-2.43-2.26-6.36-2.93-7.88-1.34-1.5,1.68-.66,3.94,1.01,7.04Zm21.78-6.87h0c1.42-3.18,2.18-4.02,4.61-3.34,2.34,.75,4.02,3.84,2.59,7.03-.67,5.52-6.78,10.38-12.06,15.99-2.59-6.95-5.19-13.91-3.85-20.27,.75-2.35,3.01-4.78,5.37-4.02,1.59-.09,3.25,1.42,3.35,4.61Zm16.16,15.16c2.35-.83,3.86-2.43,3.01-4.77-.83-2.35-3.27-3.1-7.12-2.18-6.18,1.77-9.97,7.38-15.33,13.07,7.21,2.09,14.32,4.27,20.52,2.51,3.18-.17,4.61-3.27,4.52-4.86-.84-2.34-1.59-3.1-5.61-3.77Zm-5.53,22.11h0c1.68,3.1,2.6,5.45,1.01,7.03-1.5,1.67-5.44,1.01-7.88-1.26-4.01-3.85-5.87-11.64-7.7-19.43,7.87,1.34,14.98,3.53,19.09,7.29,2.43,2.26,4.1,5.36,2.59,6.95-1.5,1.68-3.94,.92-7.12-.59Zm-21.69,6.95h0c-1.51,3.18-2.25,4.02-4.6,3.27-2.35-.67-4.11-3.77-2.6-7.04,.59-5.44,6.7-10.38,11.98-15.99,2.68,7.03,5.19,13.98,3.85,20.27-.66,2.43-3.01,4.86-5.36,4.1-1.58,0-3.18-1.51-3.27-4.6Zm-16.25-15.16h0c-3.94-.75-4.68-1.51-5.6-3.85-.08-1.51,1.42-4.69,4.51-4.77,6.2-1.76,13.4,.34,20.52,2.51-5.28,5.61-9.04,11.23-15.24,12.99-3.93,.92-6.28,.16-7.12-2.1-.92-2.34,.67-4.02,2.93-4.77Z"/>
      <path class="cls-2" d="M362.33,60.56c.21,2.16,.45,3.77,.75,4.84,.76,2.65,2.13,4.81,4.08,6.45,2.36,1.93,5.44,2.9,9.29,2.9,4.45,0,7.8-1.28,10.06-3.82,1.64-1.9,2.45-4.26,2.45-7.12,0-3.37-1.14-5.93-3.44-7.68-1.57-1.2-3.8-2.3-6.67-3.3-1.66-.55-4.47-1.37-8.39-2.48-4.22-1.16-7.24-2.23-9.08-3.19-3.32-1.72-6.02-4.08-8.09-7.07-2.75-4.03-4.11-8.93-4.11-14.7,0-6.81,1.83-12.38,5.5-16.71,4.93-5.77,11.98-8.67,21.13-8.67,5.5,0,10.32,1.07,14.49,3.2,4.68,2.45,8.17,6.38,10.49,11.81,.92,2.17,1.34,7.27,2.06,10.98l-15.14-.05c-.22-1.74-.51-3.07-.86-3.97-1.8-4.85-5.54-7.27-11.23-7.27-3.94,0-6.99,1.22-9.11,3.65-1.52,1.73-2.29,3.83-2.29,6.35,0,2.9,1,5.17,3.02,6.86,1.14,.93,2.34,1.62,3.6,2.07,1.3,.44,2.85,.91,4.66,1.39,4.56,1.18,8.23,2.2,11.01,3.1,3.85,1.24,6.83,2.69,8.95,4.33,5.94,4.54,8.9,11.28,8.9,20.22,0,7.81-1.96,13.99-5.9,18.57-4.81,5.68-12.09,8.51-21.81,8.51-5.24,0-9.93-.81-14.03-2.43-6.11-2.43-10.46-6.89-13.07-13.36-.89-2.19-1.56-4.69-1.98-7.47-.21-1.2-1.12-4.31-1.3-5.86l16.05-.07Z"/>
      <polygon class="cls-2" points="230.54 1.01 169.2 1.01 169.2 15.67 191.96 15.67 191.96 89.77 207.78 89.77 207.78 15.67 230.54 15.67 230.54 1.01"/>
      <polygon class="cls-2" points="464.91 1.01 403.56 1.01 403.56 15.67 426.31 15.67 426.31 89.77 442.14 89.77 442.14 15.67 464.91 15.67 464.91 1.01"/>
      <path class="cls-2" d="M169.14,32.94c0-17.18-17.68-31.14-39.76-31.69v-.06h-18.23V89.95h18.23v-25.33c5.09-.12,9.96-.94,14.42-2.37l7.11,27.7h18.23l-9.44-36.78c5.9-5.49,9.44-12.54,9.44-20.23Zm-39.76-16.38c11.54,.19,20.82,7.45,20.82,16.4s-9.28,16.22-20.82,16.4V16.56Z"/>
      <path class="cls-2" d="M618.09,32.94c0-17.18-17.68-31.14-39.76-31.69v-.06h-18.23V89.95h18.23v-25.33c5.09-.12,9.96-.94,14.42-2.37l7.12,27.7h18.22l-9.45-36.78c5.9-5.49,9.45-12.54,9.45-20.23Zm-39.76-16.38c11.54,.19,20.82,7.45,20.82,16.4s-9.28,16.22-20.82,16.4V16.56Z"/>
      <rect class="cls-2" x="71.83" y=".94" width="17.12" height="88.66"/>
      <polygon class="cls-2" points="663.88 59.39 663.88 58.9 689.89 1.24 672.3 1.2 654.96 39.63 637.64 1.2 620.04 1.24 646.16 59.15 646.03 59.45 646.18 59.45 646.18 89.61 663.88 89.61 663.88 59.45 663.91 59.45 663.88 59.39"/>
      <polygon class="cls-2" points="281.79 1.36 281.79 38.86 251.54 38.86 251.54 1.36 235.76 1.36 235.76 90.13 251.54 90.13 251.54 54.06 281.79 54.06 281.79 90.13 298.44 90.13 298.44 1.36 281.79 1.36"/>
      <rect class="cls-2" x="308.76" y="38.26" width="32.36" height="15.22"/>
      <path class="cls-2" d="M44.11,45.7c7.44-4.25,12.38-11.67,12.38-20.12C56.49,12.35,44.43,1.62,29.56,1.62h-.03l.03-.21h-12.44v-.17H0V90.15H17.12v-.15h12.44l-.03-.21h.03c14.87,0,26.93-10.72,26.93-23.95,0-8.45-4.94-15.86-12.38-20.13Zm-4.28-20.12c0,5.04-4.6,9.12-10.27,9.12-1.1,0-7.65,.22-12.44-.01V16.46c4.95,0,11.31-.02,12.44-.02,5.67,0,10.27,4.08,10.27,9.14Zm-10.27,49.39c-1.13,0-7.49,0-12.44-.01v-18.25c4.78-.23,11.34,0,12.44,0,5.67,0,10.27,4.08,10.27,9.13s-4.6,9.14-10.27,9.14Z"/>
      <path class="cls-2" d="M552.36,46.98c0,11.81-4.18,21.9-12.56,30.28-8.37,8.37-18.51,12.56-30.4,12.56s-21.92-4.12-30.33-12.38c-8.42-8.25-12.63-18.27-12.63-30.08s4.23-22.53,12.68-30.9c8.46-8.37,18.84-12.56,31.16-12.56s21.66,4.23,29.83,12.69c8.17,8.46,12.25,18.59,12.25,30.4Zm-76.04-.13c0,9.22,3.19,17.02,9.56,23.4,6.38,6.38,14.18,9.56,23.39,9.56s16.85-3.17,23.34-9.51c6.5-6.34,9.73-14,9.73-23,0-9.67-3.22-17.66-9.67-23.95-6.45-6.31-14.5-9.46-24.19-9.46-8.91,0-16.5,3.25-22.77,9.73-6.26,6.49-9.39,14.23-9.39,23.22Z"/>
      <path class="cls-5" d="M492.02,31.06c-3.19-1.42-5.53-2.18-7.03-.59-1.51,1.67,.17,4.69,2.59,7.03,4.02,3.77,11.14,5.95,19.1,7.28-1.84-7.78-3.68-15.57-7.8-19.42-2.43-2.26-6.36-2.93-7.88-1.34-1.5,1.68-.66,3.94,1.01,7.04Zm21.78-6.87h0c1.42-3.18,2.18-4.02,4.61-3.34,2.34,.75,4.02,3.84,2.59,7.03-.67,5.52-6.78,10.38-12.06,15.99-2.59-6.95-5.19-13.91-3.85-20.27,.75-2.35,3.01-4.78,5.37-4.02,1.59-.09,3.25,1.42,3.35,4.61Zm16.16,15.16c2.35-.83,3.86-2.43,3.01-4.77-.83-2.35-3.27-3.1-7.12-2.18-6.18,1.77-9.97,7.38-15.33,13.07,7.21,2.09,14.32,4.27,20.52,2.51,3.18-.17,4.61-3.27,4.52-4.86-.84-2.34-1.59-3.1-5.61-3.77Zm-5.53,22.11h0c1.68,3.1,2.6,5.45,1.01,7.03-1.5,1.67-5.44,1.01-7.88-1.26-4.01-3.85-5.87-11.64-7.7-19.43,7.87,1.34,14.98,3.53,19.09,7.29,2.43,2.26,4.1,5.36,2.59,6.95-1.5,1.68-3.94,.92-7.12-.59Zm-21.69,6.95h0c-1.51,3.18-2.25,4.02-4.6,3.27-2.35-.67-4.11-3.77-2.6-7.04,.59-5.44,6.7-10.38,11.98-15.99,2.68,7.03,5.19,13.98,3.85,20.27-.66,2.43-3.01,4.86-5.36,4.1-1.58,0-3.18-1.51-3.27-4.6Zm-16.25-15.16h0c-3.94-.75-4.68-1.51-5.6-3.85-.08-1.51,1.42-4.69,4.51-4.77,6.2-1.76,13.4,.34,20.52,2.51-5.28,5.61-9.04,11.23-15.24,12.99-3.93,.92-6.28,.16-7.12-2.1-.92-2.34,.67-4.02,2.93-4.77Z"/>
    </g>
  </g>
</svg>